<svg width="50" height="50" viewBox="0 0 50 50" fill="none" xmlns="http://www.w3.org/2000/svg">
<rect x="0.5" y="0.5" width="49" height="49" rx="24.5" stroke="#CACACA"/>
<path d="M31.5068 12.6056H26.9275C26.9171 12.6055 26.9067 12.606 26.8963 12.607C22.2729 12.6215 21.6691 15.8517 21.6667 18.675C21.6603 18.7017 21.657 18.7291 21.657 18.7566V20.7386H18.4928C18.4008 20.7386 18.3125 20.7751 18.2474 20.8403C18.1823 20.9054 18.1458 20.9937 18.1458 21.0858V25.9736C18.1458 26.0657 18.1823 26.154 18.2474 26.2191C18.3125 26.2843 18.4008 26.3208 18.4928 26.3208H21.657V37.0469C21.657 37.139 21.6935 37.2273 21.7586 37.2924C21.8237 37.3575 21.9119 37.3941 22.004 37.3941H26.6218C26.7138 37.3941 26.8021 37.3575 26.8672 37.2924C26.9323 37.2273 26.9688 37.139 26.9688 37.0469V26.3212H31.5065C31.5985 26.3212 31.6868 26.2846 31.7519 26.2195C31.8169 26.1544 31.8535 26.0661 31.8535 25.974V21.0861C31.8535 20.994 31.8169 20.9057 31.7519 20.8406C31.6868 20.7755 31.5985 20.7389 31.5065 20.7389H26.6218V18.1115H31.5065C31.5985 18.1115 31.6868 18.0749 31.7519 18.0098C31.8169 17.9447 31.8535 17.8563 31.8535 17.7642V12.9528C31.8536 12.9072 31.8446 12.8621 31.8272 12.8199C31.8098 12.7778 31.7843 12.7395 31.7521 12.7073C31.7199 12.675 31.6817 12.6495 31.6396 12.632C31.5975 12.6146 31.5524 12.6056 31.5068 12.6056Z" fill="#177BF2"/>
</svg>
