<svg width="50" height="50" viewBox="0 0 50 50" fill="none" xmlns="http://www.w3.org/2000/svg">
<rect x="0.5" y="0.5" width="49" height="49" rx="24.5" stroke="#C9C9C9"/>
<path d="M18 27.8751L17.2147 30.9366L14.3444 31C13.4866 29.3385 13 27.4376 13 25.4175C13 23.4641 13.4549 21.622 14.2613 20H14.2619L16.8173 20.4892L17.9367 23.1418C17.7024 23.855 17.5747 24.6207 17.5747 25.4175C17.5748 26.2822 17.7248 27.1107 18 27.8751Z" fill="#FBBB00"/>
<path d="M36.7856 24C36.9265 24.6884 37 25.3993 37 26.1258C37 26.9405 36.9076 27.7352 36.7317 28.5018C36.1344 31.1103 34.5737 33.3881 32.4117 35L32.411 34.9994L28.9101 34.8337L28.4146 31.965C29.8492 31.1847 30.9704 29.9636 31.561 28.5018H25V24H36.7856Z" fill="#518EF8"/>
<path d="M32.9993 34.4955L33 34.4961C30.8392 36.0627 28.0943 37 25.1063 37C20.3045 37 16.1297 34.5793 14 31.0169L18.0861 28C19.1509 30.5632 21.8924 32.3879 25.1063 32.3879C26.4877 32.3879 27.7819 32.051 28.8924 31.463L32.9993 34.4955Z" fill="#28B446"/>
<path d="M33 15.8534L28.9677 19.1407C27.8332 18.4345 26.492 18.0265 25.0552 18.0265C21.8108 18.0265 19.054 20.1063 18.0555 23L14.0007 19.6944H14C16.0715 15.7172 20.2446 13 25.0552 13C28.0753 13 30.8444 14.0712 33 15.8534Z" fill="#F14336"/>
</svg>
