<svg width="162" height="48" viewBox="0 0 162 48" fill="none" xmlns="http://www.w3.org/2000/svg">
<rect x="0.5" width="161" height="48" rx="24" fill="#7433FF"/>
<g clip-path="url(#clip0_257_337)">
<path d="M19.635 19.035V28.23H24.225V30H17.715V19.035H19.635ZM29.0848 30.195C26.8798 30.195 25.3348 28.59 25.3348 26.295C25.3348 23.97 26.8498 22.365 29.0248 22.365C31.2448 22.365 32.6548 23.85 32.6548 26.16V26.715L27.0748 26.73C27.2098 28.035 27.8998 28.695 29.1148 28.695C30.1198 28.695 30.7798 28.305 30.9898 27.6H32.6848C32.3698 29.22 31.0198 30.195 29.0848 30.195ZM29.0398 23.865C27.9598 23.865 27.2998 24.45 27.1198 25.56H30.8398C30.8398 24.54 30.1348 23.865 29.0398 23.865ZM36.6512 30.195C35.0762 30.195 34.1162 29.28 34.1162 27.885C34.1162 26.52 35.1062 25.665 36.8612 25.53L39.0812 25.365V25.2C39.0812 24.195 38.4812 23.79 37.5512 23.79C36.4712 23.79 35.8712 24.24 35.8712 25.02H34.3112C34.3112 23.415 35.6312 22.365 37.6412 22.365C39.6362 22.365 40.8662 23.445 40.8662 25.5V30H39.2612L39.1262 28.905C38.8112 29.67 37.8062 30.195 36.6512 30.195ZM37.2512 28.815C38.3762 28.815 39.0962 28.14 39.0962 27V26.61L37.5512 26.73C36.4112 26.835 35.9762 27.21 35.9762 27.81C35.9762 28.485 36.4262 28.815 37.2512 28.815ZM47.7139 22.56V24.255H47.0389C45.7189 24.255 44.8939 24.96 44.8939 26.4V30H43.0639V22.605H44.7889L44.8939 23.685C45.2089 22.95 45.9139 22.455 46.9039 22.455C47.1589 22.455 47.4139 22.485 47.7139 22.56ZM51.1826 30H49.3526V22.59H51.0476L51.1976 23.55C51.6626 22.8 52.5626 22.365 53.5676 22.365C55.4276 22.365 56.3876 23.52 56.3876 25.44V30H54.5576V25.875C54.5576 24.63 53.9426 24.03 52.9976 24.03C51.8726 24.03 51.1826 24.81 51.1826 26.01V30ZM64.8586 30H63.0286V22.59H64.7086L64.8586 23.46C65.2336 22.845 65.9836 22.365 67.0486 22.365C68.1736 22.365 68.9536 22.92 69.3436 23.775C69.7186 22.92 70.5886 22.365 71.7136 22.365C73.5136 22.365 74.5036 23.445 74.5036 25.155V30H72.6886V25.635C72.6886 24.57 72.1186 24.015 71.2486 24.015C70.3636 24.015 69.6886 24.585 69.6886 25.8V30H67.8586V25.62C67.8586 24.585 67.3036 24.03 66.4336 24.03C65.5636 24.03 64.8586 24.6 64.8586 25.8V30ZM76.2651 26.28C76.2651 23.97 77.9301 22.38 80.2251 22.38C82.5201 22.38 84.1851 23.97 84.1851 26.28C84.1851 28.59 82.5201 30.18 80.2251 30.18C77.9301 30.18 76.2651 28.59 76.2651 26.28ZM78.0951 26.28C78.0951 27.63 78.9651 28.545 80.2251 28.545C81.4851 28.545 82.3551 27.63 82.3551 26.28C82.3551 24.93 81.4851 24.015 80.2251 24.015C78.9651 24.015 78.0951 24.93 78.0951 26.28ZM90.6856 22.56V24.255H90.0106C88.6906 24.255 87.8656 24.96 87.8656 26.4V30H86.0356V22.605H87.7606L87.8656 23.685C88.1806 22.95 88.8856 22.455 89.8756 22.455C90.1306 22.455 90.3856 22.485 90.6856 22.56ZM95.3903 30.195C93.1853 30.195 91.6403 28.59 91.6403 26.295C91.6403 23.97 93.1553 22.365 95.3303 22.365C97.5503 22.365 98.9603 23.85 98.9603 26.16V26.715L93.3803 26.73C93.5153 28.035 94.2053 28.695 95.4203 28.695C96.4253 28.695 97.0853 28.305 97.2953 27.6H98.9903C98.6753 29.22 97.3253 30.195 95.3903 30.195ZM95.3453 23.865C94.2653 23.865 93.6053 24.45 93.4253 25.56H97.1453C97.1453 24.54 96.4403 23.865 95.3453 23.865Z" fill="white"/>
</g>
<path d="M137.5 10.667C130.153 10.667 124.167 16.6537 124.167 24.0003C124.167 31.347 130.153 37.3337 137.5 37.3337C144.847 37.3337 150.833 31.347 150.833 24.0003C150.833 16.6537 144.847 10.667 137.5 10.667ZM141.22 24.707L136.513 29.4137C136.313 29.6137 136.06 29.707 135.807 29.707C135.553 29.707 135.3 29.6137 135.1 29.4137C134.713 29.027 134.713 28.387 135.1 28.0003L139.1 24.0003L135.1 20.0003C134.713 19.6137 134.713 18.9737 135.1 18.587C135.487 18.2003 136.127 18.2003 136.513 18.587L141.22 23.2937C141.62 23.6803 141.62 24.3203 141.22 24.707Z" fill="white"/>
<defs>
<clipPath id="clip0_257_337">
<rect width="83" height="24" fill="white" transform="translate(16.5 12)"/>
</clipPath>
</defs>
</svg>
