<svg width="51" height="50" viewBox="0 0 51 50" fill="none" xmlns="http://www.w3.org/2000/svg">
<rect x="0.5" y="0.5" width="49.0288" height="49" rx="24.5" stroke="#CACACA"/>
<path d="M14.2858 20.5243H19.174V33.2792H14.2858V20.5243Z" fill="#177BF2"/>
<path d="M16.6813 18.4896C18.0476 18.4896 19.1552 17.4791 19.1552 16.2327C19.1552 14.9862 18.0476 13.9757 16.6813 13.9757C15.3149 13.9757 14.2073 14.9862 14.2073 16.2327C14.2073 17.4791 15.3149 18.4896 16.6813 18.4896Z" fill="#177BF2"/>
<path d="M31.4611 20.2361C30.4601 20.2361 29.6118 20.4184 28.9146 20.7826C28.2181 21.1472 27.5299 21.7535 26.849 22.6021V20.5243H22.2969V33.2792H27.1851V27.1538C27.1851 25.9927 27.3694 25.1885 27.7378 24.7399C28.1063 24.2917 28.5861 24.0674 29.1788 24.0674C29.7153 24.0674 30.1316 24.2337 30.4281 24.566C30.7247 24.8983 30.8722 25.4646 30.8722 26.2656V33.2792H35.7847V25.1726C35.7847 23.491 35.4021 22.2479 34.6372 21.4431C33.8733 20.6382 32.8139 20.2361 31.4611 20.2361Z" fill="#177BF2"/>
</svg>
