<svg width="152" height="40" viewBox="0 0 152 40" fill="none" xmlns="http://www.w3.org/2000/svg">
    <path fill-rule="evenodd" clip-rule="evenodd" d="M0 0H10V10H0V0ZM20 10H10V20H0V30H10V40H20V30H30V40H40V30H30V20H40V10H30V0H20V10ZM20 20H30V10H20V20ZM20 20V30H10V20H20Z" fill="#7433FF"/>
    <path d="M78.325 30.35C76.5083 30.35 74.975 29.925 73.725 29.075C72.475 28.225 71.525 27.0333 70.875 25.5C70.225 23.9667 69.9 22.2 69.9 20.2C69.9 18.1667 70.225 16.4 70.875 14.9C71.5417 13.3833 72.5333 12.2167 73.85 11.4C75.1833 10.5667 76.8333 10.15 78.8 10.15C80.4333 10.15 81.8167 10.4333 82.95 11C84.0833 11.5667 84.975 12.3667 85.625 13.4C86.275 14.4167 86.6917 15.6167 86.875 17H83.475C83.275 15.6667 82.775 14.6417 81.975 13.925C81.175 13.2083 80.0917 12.85 78.725 12.85C76.925 12.85 75.5917 13.5 74.725 14.8C73.8583 16.1 73.425 17.9 73.425 20.2C73.425 22.5833 73.8833 24.4333 74.8 25.75C75.7167 27.05 77.0583 27.7 78.825 27.7C80.3083 27.7 81.4583 27.2667 82.275 26.4C83.1083 25.5167 83.5667 24.3083 83.65 22.775H77.725V20.125H86.9V30H84.25V27.675H83.65C83.3 28.3917 82.7083 29.0167 81.875 29.55C81.0583 30.0833 79.875 30.35 78.325 30.35ZM95.6789 30.325C94.3456 30.325 93.2289 30 92.3289 29.35C91.4289 28.6833 90.7456 27.7583 90.2789 26.575C89.8289 25.3917 89.6039 24.025 89.6039 22.475C89.6039 20.9083 89.8289 19.5417 90.2789 18.375C90.7456 17.2083 91.4289 16.3 92.3289 15.65C93.2456 15 94.3706 14.675 95.7039 14.675C96.7872 14.675 97.6622 14.8917 98.3289 15.325C99.0122 15.7583 99.5122 16.3 99.8289 16.95H100.429V15H103.504V30H100.429V28.05H99.8289C99.5122 28.6667 99.0122 29.2 98.3289 29.65C97.6622 30.1 96.7789 30.325 95.6789 30.325ZM96.4539 27.775C97.5872 27.775 98.4872 27.3 99.1539 26.35C99.8206 25.3833 100.154 24.1 100.154 22.5C100.154 20.9 99.8206 19.625 99.1539 18.675C98.4872 17.7083 97.5872 17.225 96.4539 17.225C95.3872 17.225 94.5622 17.675 93.9789 18.575C93.3956 19.475 93.1039 20.7833 93.1039 22.5C93.1039 24.2167 93.3956 25.525 93.9789 26.425C94.5622 27.325 95.3872 27.775 96.4539 27.775ZM106.554 30V27.1L112.429 19.925C112.712 19.5917 112.996 19.2583 113.279 18.925C113.579 18.5917 113.854 18.3083 114.104 18.075V17.475H106.879V15H118.129V17.9L112.279 25.075C112.012 25.4083 111.737 25.7333 111.454 26.05C111.187 26.35 110.904 26.6417 110.604 26.925V27.525H118.454V30H106.554ZM127.508 30.375C125.224 30.375 123.483 29.6667 122.283 28.25C121.083 26.8167 120.483 24.8917 120.483 22.475C120.483 20.875 120.749 19.4917 121.283 18.325C121.816 17.1583 122.599 16.25 123.633 15.6C124.683 14.95 125.958 14.625 127.458 14.625C129.608 14.625 131.249 15.3 132.383 16.65C133.516 17.9833 134.083 19.9417 134.083 22.525V23.325H123.783C123.866 24.6917 124.216 25.7917 124.833 26.625C125.466 27.4583 126.358 27.875 127.508 27.875C128.374 27.875 129.066 27.625 129.583 27.125C130.116 26.625 130.483 25.9833 130.683 25.2H133.908C133.724 26.1667 133.374 27.0417 132.858 27.825C132.358 28.5917 131.666 29.2083 130.783 29.675C129.899 30.1417 128.808 30.375 127.508 30.375ZM123.808 21.075H130.783C130.716 19.7917 130.391 18.8 129.808 18.1C129.241 17.4 128.449 17.05 127.433 17.05C126.383 17.05 125.549 17.3917 124.933 18.075C124.316 18.7583 123.941 19.7583 123.808 21.075ZM139.056 30C138.673 29.55 138.364 29.0083 138.131 28.375C137.914 27.7417 137.806 26.7917 137.806 25.525V17.475H135.756V15H137.856V11.25H141.156V15H143.631V17.475H141.181V25.1C141.181 26.4333 141.323 27.45 141.606 28.15C141.906 28.8333 142.264 29.4 142.681 29.85V30H139.056ZM147.781 30.15C147.098 30.15 146.573 29.9667 146.206 29.6C145.839 29.2167 145.656 28.7083 145.656 28.075C145.656 27.425 145.839 26.9167 146.206 26.55C146.573 26.1833 147.098 26 147.781 26C148.464 26 148.981 26.1833 149.331 26.55C149.681 26.9167 149.856 27.425 149.856 28.075C149.856 28.7083 149.681 29.2167 149.331 29.6C148.981 29.9667 148.464 30.15 147.781 30.15Z" fill="#17191C"/>
</svg>
