<svg width="20" height="20" viewBox="0 0 20 20" fill="none" xmlns="http://www.w3.org/2000/svg">
<path d="M16.94 3.41994L11.77 0.429941C10.78 -0.140059 9.23002 -0.140059 8.24002 0.429941L3.02002 3.43994C0.950017 4.83994 0.830017 5.04994 0.830017 7.27994V12.7099C0.830017 14.9399 0.950017 15.1599 3.06002 16.5799L8.23002 19.5699C8.73002 19.8599 9.37002 19.9999 10 19.9999C10.63 19.9999 11.27 19.8599 11.76 19.5699L16.98 16.5599C19.05 15.1599 19.17 14.9499 19.17 12.7199V7.27994C19.17 5.04994 19.05 4.83994 16.94 3.41994ZM10 13.2499C8.21002 13.2499 6.75002 11.7899 6.75002 9.99994C6.75002 8.20994 8.21002 6.74994 10 6.74994C11.79 6.74994 13.25 8.20994 13.25 9.99994C13.25 11.7899 11.79 13.2499 10 13.2499Z" fill="#7433FF"/>
</svg>
