<svg width="38" height="38" viewBox="0 0 38 38" fill="none" xmlns="http://www.w3.org/2000/svg">
<rect width="38" height="38" rx="4" fill="#D98F00" fill-opacity="0.38"/>
<path d="M16 9C13.38 9 11.25 11.13 11.25 13.75C11.25 16.32 13.26 18.4 15.88 18.49C15.96 18.48 16.04 18.48 16.1 18.49C16.12 18.49 16.13 18.49 16.15 18.49C16.16 18.49 16.16 18.49 16.17 18.49C18.73 18.4 20.74 16.32 20.75 13.75C20.75 11.13 18.62 9 16 9Z" fill="black"/>
<path d="M21.08 21.15C18.29 19.29 13.74 19.29 10.93 21.15C9.65999 22 8.95999 23.15 8.95999 24.38C8.95999 25.61 9.65999 26.75 10.92 27.59C12.32 28.53 14.16 29 16 29C17.84 29 19.68 28.53 21.08 27.59C22.34 26.74 23.04 25.6 23.04 24.36C23.03 23.13 22.34 21.99 21.08 21.15Z" fill="black"/>
<path d="M26.99 14.34C27.15 16.28 25.77 17.98 23.86 18.21C23.85 18.21 23.85 18.21 23.84 18.21H23.81C23.75 18.21 23.69 18.21 23.64 18.23C22.67 18.28 21.78 17.97 21.11 17.4C22.14 16.48 22.73 15.1 22.61 13.6C22.54 12.79 22.26 12.05 21.84 11.42C22.22 11.23 22.66 11.11 23.11 11.07C25.07 10.9 26.82 12.36 26.99 14.34Z" fill="black"/>
<path d="M28.99 23.59C28.91 24.56 28.29 25.4 27.25 25.97C26.25 26.52 24.99 26.78 23.74 26.75C24.46 26.1 24.88 25.29 24.96 24.43C25.06 23.19 24.47 22 23.29 21.05C22.62 20.52 21.84 20.1 20.99 19.79C23.2 19.15 25.98 19.58 27.69 20.96C28.61 21.7 29.08 22.63 28.99 23.59Z" fill="black"/>
</svg>
