<svg width="38" height="38" viewBox="0 0 38 38" fill="none" xmlns="http://www.w3.org/2000/svg">
<rect width="38" height="38" rx="4" fill="#00D92F" fill-opacity="0.38"/>
<path d="M22.2645 10.3636H15.7355C12.4709 10.3636 11.6591 11.2359 11.6591 14.7164V24.4409C11.6591 26.7382 12.92 27.2823 14.4486 25.6414L14.4573 25.6327C15.1655 24.8814 16.245 24.9418 16.8582 25.7623L17.7305 26.9282C18.43 27.8523 19.5614 27.8523 20.2609 26.9282L21.1332 25.7623C21.755 24.9332 22.8345 24.8727 23.5427 25.6327C25.08 27.2736 26.3323 26.7296 26.3323 24.4323V14.7164C26.3409 11.2359 25.5291 10.3636 22.2645 10.3636ZM15.3555 19C14.8805 19 14.4918 18.6114 14.4918 18.1364C14.4918 17.6614 14.8805 17.2727 15.3555 17.2727C15.8305 17.2727 16.2191 17.6614 16.2191 18.1364C16.2191 18.6114 15.8305 19 15.3555 19ZM15.3555 15.5455C14.8805 15.5455 14.4918 15.1568 14.4918 14.6818C14.4918 14.2068 14.8805 13.8182 15.3555 13.8182C15.8305 13.8182 16.2191 14.2068 16.2191 14.6818C16.2191 15.1568 15.8305 15.5455 15.3555 15.5455ZM22.6532 18.7841H17.9032C17.5491 18.7841 17.2555 18.4905 17.2555 18.1364C17.2555 17.7823 17.5491 17.4886 17.9032 17.4886H22.6532C23.0073 17.4886 23.3009 17.7823 23.3009 18.1364C23.3009 18.4905 23.0073 18.7841 22.6532 18.7841ZM22.6532 15.3296H17.9032C17.5491 15.3296 17.2555 15.0359 17.2555 14.6818C17.2555 14.3277 17.5491 14.0341 17.9032 14.0341H22.6532C23.0073 14.0341 23.3009 14.3277 23.3009 14.6818C23.3009 15.0359 23.0073 15.3296 22.6532 15.3296Z" fill="black"/>
</svg>
