<svg width="38" height="38" viewBox="0 0 38 38" fill="none" xmlns="http://www.w3.org/2000/svg">
<rect width="38" height="38" rx="4" fill="#3250EF" fill-opacity="0.38"/>
<path d="M19 22C20.6569 22 22 20.6569 22 19C22 17.3431 20.6569 16 19 16C17.3431 16 16 17.3431 16 19C16 20.6569 17.3431 22 19 22Z" fill="black"/>
<path d="M24 10.5H14C11 10.5 9 12 9 15.5V16V22V22.5C9 26 11 27.5 14 27.5H24C27 27.5 29 26 29 22.5V22V16V15.5C29 12 27 10.5 24 10.5ZM14 26C14 23.18 13.09 22.14 10.5 22.02V22V16V15.98C13.09 15.86 14 14.82 14 12H24C24 14.82 24.91 15.86 27.5 15.98V16V22V22.02C24.91 22.14 24 23.18 24 26H14Z" fill="black"/>
</svg>
